<svg width="40" height="40" fill="none" xmlns="http://www.w3.org/2000/svg"><path d="M39.891 20c0 10.988-8.906 19.895-19.894 19.895C9.009 39.895.102 30.987.102 20S9.01.105 19.997.105C30.984.105 39.891 9.013 39.891 20" fill="#6374C3"/><path d="m19.933 10.769-.123.418v12.12l.123.122 5.626-3.325-5.626-9.335z" fill="#fff"/><path d="m19.933 10.769-5.626 9.335 5.626 3.325V10.77zM19.933 25.259l-.07.084v4.318l.07.202 5.629-7.928-5.63 3.324z" fill="#fff"/><path d="M19.933 29.863v-4.604l-5.626-3.324 5.626 7.928zM19.933 23.43l5.626-3.325-5.626-2.557v5.882zM14.307 20.105l5.626 3.325v-5.882l-5.626 2.557z" fill="#fff"/></svg>