<svg width="80" height="80" fill="none" xmlns="http://www.w3.org/2000/svg"><circle cx="40" cy="40" r="40" fill="#fff" fill-opacity=".1"/><path d="M54 55H27a2 2 0 0 1-2-2V26a1 1 0 0 1 2 0v27h27a1 1 0 0 1 0 2z" fill="#3671E9"/><path d="M33.75 51h-2.5A2.25 2.25 0 0 1 29 48.75v-9.5A2.25 2.25 0 0 1 31.25 37h2.5A2.25 2.25 0 0 1 36 39.25v9.5A2.25 2.25 0 0 1 33.75 51zM42.75 51h-2.5A2.25 2.25 0 0 1 38 48.75v-12.5A2.25 2.25 0 0 1 40.25 34h2.5A2.25 2.25 0 0 1 45 36.25v12.5A2.25 2.25 0 0 1 42.75 51zM51.727 51h-2.5a2.25 2.25 0 0 1-2.25-2.25v-16.5a2.25 2.25 0 0 1 2.25-2.25h2.5a2.25 2.25 0 0 1 2.25 2.25v16.5a2.25 2.25 0 0 1-2.25 2.25z" fill="#3671E9"/></svg>