<svg width="503" height="138" fill="none" xmlns="http://www.w3.org/2000/svg"><path d="M35.801 57.562C23.884 57.562 2 72.55 2 72.55V138h500V22.589s-21.046 9.155-30.612 5.995c-13.486-4.454-26.148-25.83-34.439-26.48-12.755-.999-8.929 5.496-35.077 5.496-24.872 0-13.687 12.99-38.265 12.99-13.457 0-33.163 10.995-33.163 10.995h-38.903c-18.495 0-22.265 32.318-42.73 29.977-19.835-2.27-19.132-7.497-35.076-7.497-15.595 0-17.997 7.646-33.801 5.995-19.133-1.998-18.495-23.482-44.643-23.482-31.888 0-37.628 26.48-63.138 28.478-18.73 1.467-15.783-7.494-36.352-7.494z" fill="url(#a)"/><path d="M2 73s21.884-15 33.801-15c20.569 0 17.623 8.969 36.352 7.5 25.51-2 31.25-28.5 63.138-28.5 26.148 0 25.51 21.5 44.643 23.5 15.804 1.652 18.206-6 33.801-6 15.944 0 15.241 5.232 35.076 7.503 20.465 2.343 24.235-30 42.73-30h38.903S350.15 21 363.607 21C388.185 21 377 8 401.872 8c26.148 0 22.322-6.5 35.077-5.5 8.291.65 20.953 22.043 34.439 26.5C480.954 32.162 502 23 502 23" stroke="#6EDCB5" stroke-width="4"/><defs><linearGradient id="a" x1="252" y1="2" x2="252" y2="138" gradientUnits="userSpaceOnUse"><stop stop-color="#6EDCB5" stop-opacity=".4"/><stop offset="1" stop-color="#6EDCB5" stop-opacity="0"/></linearGradient></defs></svg>